HIERARCHY
ROOT Hips
{
    OFFSET 0.000000 0.000000 0.000000
    CHANNELS 6 Xposition Yposition Zposition Zrotation Yrotation Xrotation
    JOINT Chest
    {
        OFFSET 0.000000 1.634758 -0.000000
        CHANNELS 3 Zrotation Yrotation Xrotation
        JOINT Chest2
        {
            OFFSET 0.000000 2.197341 0.000000
            CHANNELS 3 Zrotation Yrotation Xrotation
            JOINT Neck
            {
                OFFSET 0.000000 0.961544 0.000000
                CHANNELS 3 Zrotation Yrotation Xrotation
                JOINT Head
                {
                    OFFSET 0.000000 0.632542 -0.032565
                    CHANNELS 3 Zrotation Yrotation Xrotation
                    End Site
                    {
                        OFFSET -0.000001 0.439502 2.922845
                    }
                }
            }
            JOINT LeftCollar
            {
                OFFSET 0.167536 0.778237 -0.168280
                CHANNELS 3 Zrotation Yrotation Xrotation
                JOINT LeftShoulder
                {
                    OFFSET 0.831514 -0.002900 0.006458
                    CHANNELS 3 Zrotation Yrotation Xrotation
                    JOINT LeftElbow
                    {
                        OFFSET 2.272872 -0.026639 0.059314
                        CHANNELS 3 Zrotation Yrotation Xrotation
                        JOINT LeftWrist
                        {
                            OFFSET 2.081982 -0.024402 0.054333
                            CHANNELS 3 Zrotation Yrotation Xrotation
                            JOINT LeftHandThumb1
                            {
                                OFFSET 0.218903 -0.128645 0.283837
                                CHANNELS 3 Zrotation Yrotation Xrotation
                                JOINT LeftHandThumb2
                                {
                                    OFFSET 0.137157 -0.025101 0.077902
                                    CHANNELS 3 Zrotation Yrotation Xrotation
                                    JOINT LeftHandThumb3
                                    {
                                        OFFSET 0.142771 -0.106576 0.042395
                                        CHANNELS 3 Zrotation Yrotation Xrotation
                                        End Site
                                        {
                                            OFFSET 0.234445 -0.115474 0.059481
                                        }
                                    }
                                }
                            }
                            JOINT LeftHandFore1
                            {
                                OFFSET 0.767340 -0.016076 0.196678
                                CHANNELS 3 Zrotation Yrotation Xrotation
                                JOINT LeftHandFore2
                                {
                                    OFFSET 0.166755 -0.138006 -0.011928
                                    CHANNELS 3 Zrotation Yrotation Xrotation
                                    JOINT LeftHandFore3
                                    {
                                        OFFSET 0.060102 -0.114159 -0.010889
                                        CHANNELS 3 Zrotation Yrotation Xrotation
                                        End Site
                                        {
                                            OFFSET 0.066034 -0.181273 -0.012107
                                        }
                                    }
                                }
                            }
                            JOINT LeftHandMiddle1
                            {
                                OFFSET 0.709887 -0.008320 0.018526
                                CHANNELS 3 Zrotation Yrotation Xrotation
                                JOINT LeftHandMiddle2
                                {
                                    OFFSET 0.172954 -0.173634 -0.001476
                                    CHANNELS 3 Zrotation Yrotation Xrotation
                                    JOINT LeftHandMiddle3
                                    {
                                        OFFSET 0.033347 -0.142272 0.005473
                                        CHANNELS 3 Zrotation Yrotation Xrotation
                                        End Site
                                        {
                                            OFFSET -0.011187 -0.235563 0.003877
                                        }
                                    }
                                }
                            }
                            JOINT LeftHandRing1
                            {
                                OFFSET 0.743817 -0.005823 -0.153668
                                CHANNELS 3 Zrotation Yrotation Xrotation
                                JOINT LeftHandRing2
                                {
                                    OFFSET 0.220537 -0.275777 -0.006616
                                    CHANNELS 3 Zrotation Yrotation Xrotation
                                    JOINT LeftHandRing3
                                    {
                                        OFFSET 0.026553 -0.133000 0.014540
                                        CHANNELS 3 Zrotation Yrotation Xrotation
                                        End Site
                                        {
                                            OFFSET -0.016929 -0.118693 0.006706
                                        }
                                    }
                                }
                            }
                            JOINT LeftHandLittle1
                            {
                                OFFSET 0.689408 -0.053302 -0.308304
                                CHANNELS 3 Zrotation Yrotation Xrotation
                                JOINT LeftHandLittle2
                                {
                                    OFFSET 0.151307 -0.122160 -0.015404
                                    CHANNELS 3 Zrotation Yrotation Xrotation
                                    JOINT LeftHandLittle3
                                    {
                                        OFFSET 0.042990 -0.112386 0.004199
                                        CHANNELS 3 Zrotation Yrotation Xrotation
                                        End Site
                                        {
                                            OFFSET 0.073530 -0.175632 0.005959
                                        }
                                    }
                                }
                            }
                        }
                    }
                }
            }
            JOINT RightCollar
            {
                OFFSET -0.167536 0.778237 -0.168280
                CHANNELS 3 Zrotation Yrotation Xrotation
                JOINT RightShoulder
                {
                    OFFSET -0.831514 -0.002900 0.006457
                    CHANNELS 3 Zrotation Yrotation Xrotation
                    JOINT RightElbow
                    {
                        OFFSET -2.272872 -0.026639 0.059313
                        CHANNELS 3 Zrotation Yrotation Xrotation
                        JOINT RightWrist
                        {
                            OFFSET -2.081982 -0.024402 0.054331
                            CHANNELS 3 Zrotation Yrotation Xrotation
                            JOINT RightHandThumb1
                            {
                                OFFSET -0.218911 -0.128571 0.283837
                                CHANNELS 3 Zrotation Yrotation Xrotation
                                JOINT RightHandThumb2
                                {
                                    OFFSET -0.137157 -0.025101 0.077902
                                    CHANNELS 3 Zrotation Yrotation Xrotation
                                    JOINT RightHandThumb3
                                    {
                                        OFFSET -0.177649 -0.044489 0.000990
                                        CHANNELS 3 Zrotation Yrotation Xrotation
                                        End Site
                                        {
                                            OFFSET -0.249429 -0.088811 0.041642
                                        }
                                    }
                                }
                            }
                            JOINT RightHandFore1
                            {
                                OFFSET -0.767344 -0.015991 0.196679
                                CHANNELS 3 Zrotation Yrotation Xrotation
                                JOINT RightHandFore2
                                {
                                    OFFSET -0.166790 -0.137971 -0.011919
                                    CHANNELS 3 Zrotation Yrotation Xrotation
                                    JOINT RightHandFore3
                                    {
                                        OFFSET -0.060238 -0.113726 -0.014141
                                        CHANNELS 3 Zrotation Yrotation Xrotation
                                        End Site
                                        {
                                            OFFSET -0.066647 -0.179046 -0.029454
                                        }
                                    }
                                }
                            }
                            JOINT RightHandMiddle1
                            {
                                OFFSET -0.709887 -0.008302 0.018525
                                CHANNELS 3 Zrotation Yrotation Xrotation
                                JOINT RightHandMiddle2
                                {
                                    OFFSET -0.172935 -0.173647 -0.001461
                                    CHANNELS 3 Zrotation Yrotation Xrotation
                                    JOINT RightHandMiddle3
                                    {
                                        OFFSET -0.037055 -0.138759 0.027519
                                        CHANNELS 3 Zrotation Yrotation Xrotation
                                        End Site
                                        {
                                            OFFSET -0.000225 -0.224771 0.071474
                                        }
                                    }
                                }
                            }
                            JOINT RightHandRing1
                            {
                                OFFSET -0.743819 -0.005785 -0.153669
                                CHANNELS 3 Zrotation Yrotation Xrotation
                                JOINT RightHandRing2
                                {
                                    OFFSET -0.220556 -0.275762 -0.006621
                                    CHANNELS 3 Zrotation Yrotation Xrotation
                                    JOINT RightHandRing3
                                    {
                                        OFFSET -0.024592 -0.134098 -0.004216
                                        CHANNELS 3 Zrotation Yrotation Xrotation
                                        End Site
                                        {
                                            OFFSET 0.016552 -0.118465 0.010596
                                        }
                                    }
                                }
                            }
                            JOINT RightHandLittle1
                            {
                                OFFSET -0.689403 -0.053298 -0.308303
                                CHANNELS 3 Zrotation Yrotation Xrotation
                                JOINT RightHandLittle2
                                {
                                    OFFSET -0.151312 -0.122158 -0.015407
                                    CHANNELS 3 Zrotation Yrotation Xrotation
                                    JOINT RightHandLittle3
                                    {
                                        OFFSET -0.049392 -0.107020 0.024547
                                        CHANNELS 3 Zrotation Yrotation Xrotation
                                        End Site
                                        {
                                            OFFSET -0.082750 -0.167895 0.035387
                                        }
                                    }
                                }
                            }
                        }
                    }
                }
            }
        }
    }
    JOINT LeftHip
    {
        OFFSET 0.685143 0.673822 -0.044491
        CHANNELS 3 Zrotation Yrotation Xrotation
        JOINT LeftKnee
        {
            OFFSET 0.085364 -3.750208 0.017676
            CHANNELS 3 Zrotation Yrotation Xrotation
            JOINT LeftAnkle
            {
                OFFSET 0.094583 -4.155206 0.019585
                CHANNELS 3 Zrotation Yrotation Xrotation
                JOINT LeftToe
                {
                    OFFSET -0.000000 -0.395925 0.621478
                    CHANNELS 3 Zrotation Yrotation Xrotation
                    End Site
                    {
                        OFFSET -0.000000 -0.077878 0.321152
                    }
                }
            }
        }
    }
    JOINT RightHip
    {
        OFFSET -0.685143 0.673822 -0.044492
        CHANNELS 3 Zrotation Yrotation Xrotation
        JOINT RightKnee
        {
            OFFSET -0.085364 -3.750208 0.017677
            CHANNELS 3 Zrotation Yrotation Xrotation
            JOINT RightAnkle
            {
                OFFSET -0.094583 -4.155206 0.019585
                CHANNELS 3 Zrotation Yrotation Xrotation
                JOINT RightToe
                {
                    OFFSET -0.000000 -0.395925 0.621478
                    CHANNELS 3 Zrotation Yrotation Xrotation
                    End Site
                    {
                        OFFSET -0.000000 -0.077878 0.321152
                    }
                }
            }
        }
    }
}
MOTION
Frames: 4
Frame Time: 0.033333
-0.018366 8.408202 9.850307 180.000000 0.000007 179.999985 0.000003 0.000018 5.595538 -0.000002 -0.000000 -3.645239 0.000005 -0.000003 8.459674 0.000007 -0.000010 18.157412 -14.336123 3.424268 0.011977 -59.236469 17.058462 -2.871253 0.015501 -12.503446 -0.148806 4.784475 -6.428069 38.702869 0.000002 0.000008 0.000002 0.000005 -0.000001 -0.000002 -0.000002 -0.000001 -0.000002 0.000000 -0.000000 0.000000 0.000002 -0.000001 0.000000 -0.000005 -0.000005 -0.000005 -0.000001 -0.000001 0.000003 0.000000 0.000000 0.000002 -0.000001 -0.000001 -0.000002 0.000000 -0.000000 0.000002 0.000002 0.000000 -0.000002 0.000000 0.000000 0.000002 -0.000003 0.000001 0.000005 0.000006 0.000001 -0.000002 -0.000002 -0.000000 0.000000 14.386578 -3.250328 0.011352 59.229504 -15.837947 -2.664364 -0.012273 11.182766 -0.132667 -4.955606 6.446208 38.338959 0.000003 -0.000000 -0.000003 0.000005 0.000002 -0.000007 0.000005 0.000001 0.000005 0.000001 0.000001 0.000000 0.000005 -0.000002 0.000002 -0.000000 -0.000001 -0.000003 0.000004 0.000002 -0.000005 -0.000002 -0.000001 0.000005 0.000002 0.000001 -0.000003 0.000002 0.000001 -0.000005 -0.000004 -0.000001 0.000002 0.000001 0.000003 0.000005 0.000002 0.000001 0.000000 -0.000001 0.000003 -0.000005 -0.000001 -0.000002 -0.000003 -4.027400 -0.200845 -7.130013 0.084511 0.461807 20.738413 4.101803 8.083194 -20.501999 0.000001 0.000006 0.000005 4.869865 1.432338 -28.074720 -0.404028 -0.943698 46.356247 -8.977897 -10.164752 9.493354 -0.065233 -1.758302 -11.505888
-0.018365 8.408202 9.850319 180.000000 0.000007 179.999985 -0.000028 0.000013 5.594964 -0.000034 0.000003 -3.645914 0.000005 -0.000003 8.460098 0.000007 0.000000 18.158175 -14.336135 3.423975 0.011976 -59.236427 17.059505 -2.869833 0.015498 -12.507490 -0.148855 4.785073 -6.428809 38.679138 0.000002 0.000018 0.000017 -0.000000 -0.000001 -0.000003 0.000001 -0.000002 0.000009 0.000010 -0.000003 0.000010 0.000004 -0.000001 0.000003 -0.000004 -0.000001 0.000002 0.000007 -0.000001 0.000007 -0.000001 -0.000003 0.000002 -0.000001 -0.000000 0.000002 0.000019 0.000007 0.000009 -0.000002 -0.000003 0.000002 -0.000001 -0.000001 -0.000003 0.000009 -0.000004 0.000009 0.000005 0.000003 0.000000 -0.000003 -0.000000 -0.000002 14.386609 -3.250038 0.011348 59.229504 -15.838200 -2.662924 -0.012278 11.185143 -0.132698 -4.956132 6.446813 38.311092 -0.000002 -0.000002 -0.000005 0.000004 0.000002 -0.000002 0.000001 0.000002 0.000007 0.000005 -0.000004 0.000002 -0.000002 -0.000000 0.000005 -0.000000 -0.000000 0.000002 0.000015 -0.000002 0.000005 0.000003 0.000002 0.000002 -0.000003 -0.000002 0.000002 0.000009 0.000005 0.000009 -0.000003 0.000001 0.000002 0.000001 -0.000001 0.000000 0.000005 0.000003 0.000015 0.000005 -0.000003 -0.000007 -0.000000 -0.000001 -0.000002 -4.027397 -0.200854 -7.130058 0.084511 0.461806 20.738377 4.101935 8.083243 -20.501917 0.000001 0.000002 0.000002 4.869866 1.432405 -28.074791 -0.404027 -0.943698 46.356186 -8.977845 -10.164902 9.493481 -0.065232 -1.758303 -11.505937
-0.018364 8.408203 9.850355 180.000000 0.000007 179.999985 -0.000123 -0.000002 5.593189 -0.000127 0.000011 -3.647724 0.000007 -0.000002 8.461318 0.000005 0.000030 18.160358 -14.336137 3.423113 0.011981 -59.236340 17.061247 -2.865523 0.015538 -12.517027 -0.148974 4.786866 -6.431041 38.609509 -0.000002 0.000007 0.000009 -0.000001 -0.000000 -0.000002 0.000002 0.000001 0.000000 0.000006 -0.000004 0.000012 0.000006 0.000002 -0.000002 0.000003 0.000001 0.000000 -0.000000 0.000002 0.000010 0.000003 0.000001 0.000002 -0.000001 -0.000002 -0.000003 -0.000005 0.000001 0.000009 0.000000 0.000001 0.000002 -0.000003 -0.000003 -0.000003 0.000002 -0.000002 0.000014 0.000000 -0.000003 0.000000 -0.000002 0.000002 -0.000005 14.386713 -3.249182 0.011347 59.229443 -15.837692 -2.658371 -0.012280 11.190051 -0.132756 -4.957720 6.448650 38.229645 -0.000002 -0.000000 -0.000007 0.000003 0.000001 -0.000005 -0.000000 0.000000 0.000003 0.000005 -0.000001 0.000002 0.000001 -0.000001 0.000007 -0.000003 0.000000 -0.000009 0.000012 -0.000002 0.000002 0.000003 0.000001 0.000003 0.000000 0.000003 -0.000002 0.000002 -0.000001 0.000003 0.000001 -0.000000 -0.000002 0.000000 -0.000001 0.000002 0.000004 -0.000005 -0.000005 -0.000002 0.000000 0.000000 -0.000005 -0.000000 -0.000002 -4.027387 -0.200816 -7.130164 0.084510 0.461803 20.738243 4.102342 8.083326 -20.501677 0.000001 0.000004 0.000000 4.869887 1.432331 -28.074997 -0.404024 -0.943695 46.356037 -8.977788 -10.165100 9.493806 -0.065230 -1.758287 -11.505980
-0.018362 8.408203 9.850415 180.000000 0.000007 179.999985 -0.000280 -0.000025 5.590269 -0.000282 0.000025 -3.650716 0.000009 0.000000 8.463326 0.000003 0.000078 18.163956 -14.336176 3.421678 0.011985 -59.236149 17.064901 -2.858401 0.015583 -12.534290 -0.149187 4.789846 -6.434773 38.496391 -0.000002 0.000004 0.000015 -0.000000 -0.000001 -0.000002 0.000002 -0.000001 0.000005 -0.000000 -0.000005 0.000010 0.000008 0.000002 -0.000002 -0.000002 0.000001 0.000003 0.000001 -0.000001 0.000003 -0.000002 -0.000002 0.000005 -0.000001 -0.000002 -0.000003 -0.000002 -0.000006 0.000002 0.000001 0.000000 0.000005 0.000000 -0.000001 -0.000005 -0.000007 -0.000004 0.000015 0.000000 -0.000004 0.000002 -0.000005 0.000000 -0.000002 14.386889 -3.247814 0.011338 59.229343 -15.837390 -2.651031 -0.012312 11.199242 -0.132867 -4.960372 6.451758 38.097847 -0.000006 0.000005 -0.000009 0.000000 -0.000000 -0.000003 0.000000 -0.000001 0.000000 0.000004 0.000001 0.000007 0.000004 -0.000002 -0.000003 0.000002 0.000001 -0.000002 0.000011 0.000001 0.000000 0.000004 -0.000002 0.000000 -0.000002 0.000002 0.000005 -0.000003 0.000003 0.000010 0.000001 0.000001 -0.000005 -0.000001 -0.000001 0.000000 0.000002 0.000008 0.000003 0.000000 -0.000002 0.000000 -0.000002 -0.000001 0.000003 -4.027383 -0.200968 -7.130484 0.084510 0.461805 20.738310 4.102962 8.083683 -20.501419 0.000001 0.000003 0.000006 4.869905 1.432445 -28.075401 -0.404023 -0.943693 46.355907 -8.977598 -10.165650 9.494306 -0.065233 -1.758243 -11.505831
